<?xml version="1.0" encoding="utf-8"?>
<!-- Generator: Adobe Illustrator 27.5.0, SVG Export Plug-In . SVG Version: 6.00 Build 0)  -->
<svg version="1.1" xmlns="http://www.w3.org/2000/svg" xmlns:xlink="http://www.w3.org/1999/xlink" x="0px" y="0px"
	 viewBox="0 0 500 500" style="enable-background:new 0 0 500 500;" xml:space="preserve">
<g id="BACKGROUND">
	<rect style="fill:#FFFFFF;" width="500" height="500"/>
	<path style="fill:#D4E9FA;" d="M68.25,385.25h407.17c0.393-9.246-0.593-18.342-4.262-26.814
		c-5.636-13.015-16.948-22.801-23.018-35.616c-13.464-28.427,1.968-62.835-5.539-93.413c-4.435-18.065-17.249-33.851-33.94-41.811
		c-16.256-7.752-35.084-8.138-51.802-14.82c-13.527-5.406-25.387-14.967-33.592-27.078c-7.844-11.579-12.453-25.424-22.01-35.611
		c-14.863-15.843-38.364-19.504-59.997-19.779c-17.911-0.228-36.095,1.291-52.918,7.492c-16.823,6.2-32.275,17.476-40.935,33.278
		c-11.16,20.366-10.643,46.861-26.239,64.015c-15.232,16.755-40.642,18.874-59.513,31.312
		c-20.293,13.375-31.323,38.238-32.104,62.662c-0.781,24.424,7.594,48.381,19.438,69.704C54.264,368.27,60.579,377.62,68.25,385.25z
		"/>
</g>
<g id="OBJECTS">
	<g>
		<g>
			<polygon style="fill:#6376BF;" points="177.467,385.25 63.527,385.25 66.097,257.25 66.727,225.73 174.267,225.73 
				176.167,320.26 			"/>
			<polygon style="fill:#5366AD;" points="174.263,225.725 186.621,385.246 177.468,385.246 			"/>
			<g>
				<path style="fill:#FFFFFF;" d="M142.315,211.781v15.254h-3.741v-15.254c0-6.322-5.134-11.457-11.457-11.457h-13.243
					c-6.322,0-11.457,5.135-11.457,11.457v15.254h-3.741v-15.254c0-8.38,6.818-15.198,15.198-15.198h13.243
					C135.497,196.583,142.315,203.401,142.315,211.781z"/>
				<path style="opacity:0.5;fill:#6376BF;" d="M103.268,227.661v6.855c0,0.346-0.281,0.627-0.617,0.627h-4.368
					c-0.346,0-0.627-0.281-0.627-0.627v-6.855c0-0.346,0.281-0.627,0.627-0.627h4.368
					C102.988,227.035,103.268,227.316,103.268,227.661z"/>
				<path style="opacity:0.5;fill:#6376BF;" d="M143.409,227.661v6.855c0,0.346-0.281,0.627-0.627,0.627h-4.358
					c-0.346,0-0.627-0.281-0.627-0.627v-6.855c0-0.346,0.281-0.627,0.627-0.627h4.358
					C143.128,227.035,143.409,227.316,143.409,227.661z"/>
			</g>
			<path style="opacity:0.5;fill:#6376BF;" d="M177.467,385.25H63.527l2.57-128h79.078c3.841,0,7.318,2.273,8.859,5.79
				l15.133,34.539l7,22.68L177.467,385.25z"/>
		</g>
		<g>
			<polygon style="fill:#FCC574;" points="154.957,385.25 58.517,385.25 58.717,374 58.737,373 59.947,304 59.997,301.41 
				60.227,289.01 60.297,284.8 60.407,278.61 60.647,265.25 152.827,265.25 153.057,278.61 153.167,284.8 153.247,289.01 
				153.467,301.41 154.737,373 154.757,374 154.867,380.42 			"/>
			<path style="opacity:0.3;fill:#FCC574;" d="M154.957,385.25h-96.44l0.2-11.25l0.02-1l1.21-69h56.9c4.74,0,8.75,3.51,9.38,8.2
				l8.83,65.57c0.21,1.52,1.5,2.65,3.03,2.65h16.78L154.957,385.25z"/>
			<polygon style="fill:#E8B05F;" points="152.819,265.249 161.431,385.246 154.956,385.246 			"/>
			<g>
				<g style="opacity:0.4;">
					<polygon style="fill:#FCC574;" points="153.468,301.405 59.999,301.405 60.224,289.013 153.243,289.013 					"/>
					<polygon style="fill:#FCC574;" points="153.168,284.805 60.299,284.805 60.411,278.614 153.056,278.614 					"/>
				</g>
				<g>
					<g>
						<path style="fill:#FFFFFF;" d="M125.123,261.349v6.313h-3.741v-6.313c0-8.642-7.033-15.665-15.665-15.665
							c-8.642,0-15.665,7.024-15.665,15.665v6.313H86.31v-6.313c0-10.699,8.707-19.406,19.406-19.406
							S125.123,250.65,125.123,261.349z"/>
					</g>
					<path style="opacity:0.5;fill:#FCC574;" d="M91.173,268.279v6.079c0,0.346-0.271,0.627-0.617,0.627h-4.527
						c-0.337,0-0.617-0.281-0.617-0.627v-6.079c0-0.337,0.281-0.617,0.617-0.617h4.527
						C90.902,267.662,91.173,267.942,91.173,268.279z"/>
					<path style="opacity:0.5;fill:#FCC574;" d="M126.133,268.279v6.079c0,0.346-0.281,0.627-0.627,0.627h-4.517
						c-0.346,0-0.627-0.281-0.627-0.627v-6.079c0-0.337,0.281-0.617,0.627-0.617h4.517
						C125.852,267.662,126.133,267.942,126.133,268.279z"/>
				</g>
				<g style="opacity:0.5;">
					<polygon style="fill:#FCC574;" points="154.757,374 58.717,374 58.737,373 154.737,373 					"/>
				</g>
			</g>
		</g>
		<g>
			<g>
				<polygon style="fill:#F05956;" points="121.617,385.25 46.527,385.25 46.607,381.42 46.627,380.42 48.187,308.25 
					119.947,308.25 121.517,380.42 121.537,381.42 121.607,384.86 				"/>
				
					<ellipse transform="matrix(0.9239 -0.3827 0.3827 0.9239 -127.9126 58.8877)" style="opacity:0.5;fill:#F05956;" cx="84.068" cy="350.973" rx="13.632" ry="13.632"/>
				<g style="opacity:0.5;">
					<polygon style="fill:#F05956;" points="121.537,381.42 46.607,381.42 46.627,380.42 121.517,380.42 					"/>
				</g>
				<path style="opacity:0.3;fill:#F05956;" d="M121.617,385.25h-75.09l0.08-3.83l0.02-1l1.56-72.17h2.77l1.234,49.589
					c0.273,10.985,8.602,20.087,19.52,21.332l49.897,5.689L121.617,385.25z"/>
			</g>
			<polygon style="fill:#D94946;" points="119.949,308.249 127.204,385.246 121.612,385.246 			"/>
			<g>
				<g>
					<path style="fill:#FFFFFF;" d="M99.877,301.901v8.286c-0.037-0.009-0.084-0.009-0.122-0.009h-3.507
						c-0.037,0-0.075,0-0.112,0.009v-8.286c0-2.656-2.17-4.826-4.826-4.826H76.832c-2.665,0-4.826,2.17-4.826,4.826v8.286
						c-0.037-0.009-0.084-0.009-0.122-0.009h-3.507c-0.037,0-0.075,0-0.112,0.009v-8.286c0-4.723,3.844-8.567,8.567-8.567H91.31
						C96.033,293.334,99.877,297.178,99.877,301.901z"/>
				</g>
				<path style="opacity:0.5;fill:#F05956;" d="M72.558,310.842v6.257c0,0.374-0.299,0.673-0.673,0.673h-3.507
					c-0.365,0-0.673-0.299-0.673-0.673v-6.257c0-0.327,0.243-0.599,0.561-0.655c0.037-0.009,0.075-0.009,0.112-0.009h3.507
					c0.037,0,0.084,0,0.122,0.009C72.324,310.243,72.558,310.515,72.558,310.842z"/>
				<path style="opacity:0.5;fill:#F05956;" d="M100.428,310.842v6.257c0,0.374-0.299,0.673-0.673,0.673h-3.507
					c-0.374,0-0.673-0.299-0.673-0.673v-6.257c0-0.327,0.243-0.608,0.561-0.655c0.037-0.009,0.075-0.009,0.112-0.009h3.507
					c0.037,0,0.084,0,0.122,0.009C100.194,310.243,100.428,310.515,100.428,310.842z"/>
			</g>
		</g>
	</g>
	<g>
		<g>
			<path style="fill:#F05956;" d="M412.007,310.27l-93.8,40.06c-2.29,0.98-4.93-0.08-5.91-2.37l-23.43-54.87
				c-0.98-2.28,0.08-4.93,2.37-5.9l39.98-17.08l53.82-22.99c2.29-0.97,4.93,0.09,5.91,2.38l19.31,45.22l4.12,9.65
				C415.357,306.65,414.297,309.3,412.007,310.27z"/>
			<path style="fill:#FCC574;" d="M345.689,308.237l-15.94,6.808c-0.339,0.145-0.73-0.013-0.875-0.351l-4.534-10.618
				c-0.145-0.339,0.013-0.73,0.351-0.875l15.94-6.808c0.339-0.145,0.73,0.013,0.875,0.351l4.534,10.618
				C346.184,307.701,346.027,308.093,345.689,308.237z"/>
			
				<rect x="331.327" y="312.167" transform="matrix(0.9196 -0.3928 0.3928 0.9196 -95.446 162.8292)" style="fill:#FCC574;" width="37.75" height="5"/>
			
				<rect x="369.011" y="300.237" transform="matrix(0.9196 -0.3928 0.3928 0.9196 -88.5152 172.8399)" style="fill:#FCC574;" width="18.25" height="5"/>
			
				<rect x="387.865" y="293.413" transform="matrix(0.9196 -0.3928 0.3928 0.9196 -84.5514 178.5684)" style="fill:#FCC574;" width="12.5" height="5"/>
			<path style="fill:#FCC574;" d="M387.939,264.734c1.681,3.936-0.147,8.49-4.083,10.171c-3.936,1.681-8.49-0.147-10.171-4.083
				c-1.681-3.936,0.147-8.49,4.083-10.171C381.704,258.97,386.258,260.798,387.939,264.734z"/>
			<path style="opacity:0.4;fill:#F05956;" d="M412.007,310.27l-93.8,40.06c-2.29,0.98-4.93-0.08-5.91-2.37l-23.43-54.87
				c-0.98-2.28,0.08-4.93,2.37-5.9l39.98-17.08c1.94,11.45,8.67,48.26,15.2,48.89c6.27,0.61,46.57-18.11,63.84-24.28l4.12,9.65
				C415.357,306.65,414.297,309.3,412.007,310.27z"/>
		</g>
		<g>
			<path style="fill:#FCC574;" d="M418.127,321.08v59.67c0,0.51-0.08,0.99-0.24,1.45c-0.6,1.78-2.29,3.05-4.26,3.05h-102
				c-2.49,0-4.5-2.01-4.5-4.5v-59.67c0-2.48,2.01-4.5,4.5-4.5h102C416.107,316.58,418.127,318.6,418.127,321.08z"/>
			<rect x="307.122" y="361.917" style="fill:#F05956;" width="111" height="11.667"/>
			<path style="opacity:0.4;fill:#FCC574;" d="M417.887,382.2c-0.6,1.78-2.29,3.05-4.26,3.05h-102c-2.49,0-4.5-2.01-4.5-4.5v-59.67
				c0-2.48,2.01-4.5,4.5-4.5h23.73l0.98,19.76c1.14,22.97,19.25,41.46,42.18,43.08L417.887,382.2z"/>
			<g>
				<line style="opacity:0.5;fill:none;stroke:#FCC574;stroke-miterlimit:10;" x1="312.833" y1="358.99" x2="413.167" y2="358.99"/>
				<line style="opacity:0.5;fill:none;stroke:#FCC574;stroke-miterlimit:10;" x1="368.5" y1="354.953" x2="413.167" y2="354.953"/>
				
					<line style="opacity:0.5;fill:none;stroke:#FCC574;stroke-miterlimit:10;" x1="399.167" y1="350.915" x2="413.167" y2="350.915"/>
			</g>
		</g>
	</g>
	<g>
		<g>
			<g>
				<path style="fill:#FFFFFF;" d="M444.977,356.75c0.05,1.98-1.33,3.77-3.04,4.76c-0.65,0.38-1.33,0.68-2.01,0.9
					c-0.4,0.14-0.81,0.25-1.21,0.33c-4.44,0.9-9.14-1.1-11.93-4.78c-1.54-2.02-2.76-4.33-3.32-6.81c-1.2-5.28,0.61-10.72,1.27-16.09
					c0.49-3.99,0.03-8.56-2.2-11.69c-0.32-0.44-0.21-0.96,0.11-1.28c0.26-0.26,0.65-0.39,1.07-0.25c0.04,0.01,0.09,0.03,0.13,0.05
					c1.69,0.57,3.34,1.27,4.93,2.09c3.18,1.65,6.27,3.98,7.53,7.34c1.48,3.99,0.07,8.55,1.31,12.61c1.07,3.51,3.92,6.13,5.95,9.18
					C444.297,354.21,444.947,355.43,444.977,356.75z"/>
				<g style="opacity:0.5;">
					<path style="fill:#D4E9FA;" d="M439.927,362.41c-0.4,0.14-0.81,0.25-1.21,0.33c-3.17-2.52-9.34-8.58-8.67-17.15
						c0.76-9.81-2.96-19.26-7.4-23.5c0.26-0.26,0.65-0.39,1.07-0.25c0.04,0.01,0.09,0.03,0.13,0.05c4.4,4.68,7.95,14.08,7.19,23.77
						C430.357,354.36,437.187,360.37,439.927,362.41z"/>
				</g>
			</g>
			<g>
				<path style="fill:#FCC574;" d="M452.167,339.03c-0.37,4.02-0.23,8.1-0.95,12.07c-0.6,3.29-2.01,6.73-4.95,8.32
					c-3.45,1.86-10.79,2.21-12.71-1.99c-2.43-5.32-1.81-12.49,0.41-17.75c1.85-4.4,4.96-8.16,7.09-12.43
					c3.03-6.1,3.93-13.22,2.58-19.89c-0.05-0.23-0.01-0.43,0.09-0.6c0.16-0.31,0.51-0.5,0.87-0.47c0.2,0.01,0.41,0.1,0.58,0.27
					c3.38,3.48,6.52,7.25,7.86,11.86C454.977,325.07,452.807,332.13,452.167,339.03z"/>
				<g style="opacity:0.5;">
					<path style="fill:#FCC574;" d="M439.967,358.73l-0.85-0.51c0.18-0.3,17.67-30.28,4.61-51.46c0.16-0.31,0.51-0.5,0.87-0.47
						C457.927,327.99,440.157,358.42,439.967,358.73z"/>
				</g>
			</g>
		</g>
		<g>
			<polygon style="fill:#B4CBDD;" points="450.157,358.99 450.057,360.03 449.967,361.03 449.607,364.75 449.387,367 
				449.217,368.75 448.757,373.58 447.637,385.25 427.167,385.25 426.047,373.58 425.577,368.75 425.407,367 425.187,364.75 
				424.827,361.03 424.737,360.03 424.637,358.99 			"/>
			<rect x="423.75" y="356.917" style="fill:#B4CBDD;" width="27.295" height="3.115"/>
			<polygon style="opacity:0.5;fill:#B4CBDD;" points="449.607,364.75 449.387,367 425.407,367 425.187,364.75 			"/>
			<polygon style="opacity:0.5;fill:#B4CBDD;" points="449.217,368.75 448.757,373.58 426.047,373.58 425.577,368.75 			"/>
			<g>
				<polygon style="fill:#B4CBDD;" points="450.057,360.03 449.967,361.03 424.827,361.03 424.737,360.03 				"/>
			</g>
		</g>
	</g>
	<g>
		<g>
			<path style="fill:#6376BF;" d="M315.99,385.25H170.343c-7.277,0-13.177-5.899-13.177-13.177V144.426
				c0-7.277,5.899-13.176,13.177-13.176H315.99c7.277,0,13.176,5.899,13.176,13.176v227.647
				C329.167,379.351,323.267,385.25,315.99,385.25z"/>
			<path style="opacity:0.3;fill:#6376BF;" d="M329.167,144.43v3.12c0-7.28-5.9-13.18-13.18-13.18h-145.64
				c-7.28,0-13.18,5.9-13.18,13.18v-3.12c0-7.28,5.9-13.18,13.18-13.18h145.64C323.267,131.25,329.167,137.15,329.167,144.43z"/>
			<rect x="157.167" y="149.25" style="fill:#FFFFFF;" width="172" height="216"/>
			<g style="opacity:0.5;">
				<path style="fill:#6376BF;" d="M266.417,140.917c0,0.92-0.746,1.667-1.667,1.667s-1.667-0.746-1.667-1.667
					c0-0.921,0.746-1.667,1.667-1.667S266.417,139.996,266.417,140.917z"/>
				<path style="fill:#6376BF;" d="M256.917,142.583h-35.333c-0.921,0-1.667-0.746-1.667-1.667l0,0c0-0.921,0.746-1.667,1.667-1.667
					h35.333c0.921,0,1.667,0.746,1.667,1.667l0,0C258.583,141.837,257.837,142.583,256.917,142.583z"/>
			</g>
			<path style="opacity:0.5;fill:#6376BF;" d="M259.542,377h-32.75c-1.933,0-3.5-1.567-3.5-3.5l0,0c0-1.933,1.567-3.5,3.5-3.5h32.75
				c1.933,0,3.5,1.567,3.5,3.5l0,0C263.042,375.433,261.475,377,259.542,377z"/>
		</g>
		<g>
			<g>
				<g>
					<rect x="157.167" y="149.25" style="fill:#B4CBDD;" width="172" height="9.583"/>
					<g>
						<circle style="fill:#FFFFFF;" cx="307.833" cy="153.75" r="1.917"/>
						<circle style="fill:#FFFFFF;" cx="314.583" cy="153.75" r="1.917"/>
						<circle style="fill:#FFFFFF;" cx="321.333" cy="153.75" r="1.917"/>
					</g>
				</g>
				<g>
					<g>
						<path style="fill:#6376BF;" d="M286.425,181.273h-87.083c-3.222,0-5.833-2.612-5.833-5.833l0,0
							c0-3.222,2.612-5.833,5.833-5.833h87.083c3.222,0,5.833,2.612,5.833,5.833l0,0
							C292.258,178.661,289.646,181.273,286.425,181.273z"/>
						<path style="fill:#FFFFFF;" d="M286.247,179.879h-67.862c-2.452,0-4.439-1.988-4.439-4.44l0,0c0-2.452,1.988-4.44,4.439-4.44
							h67.862c2.452,0,4.44,1.988,4.44,4.44l0,0C290.687,177.891,288.699,179.879,286.247,179.879z"/>
						<g>
							<path style="fill:none;stroke:#FFFFFF;stroke-miterlimit:10;" d="M205.793,175.037c0,1.634-1.324,2.958-2.958,2.958
								c-1.634,0-2.958-1.324-2.958-2.958c0-1.634,1.325-2.958,2.958-2.958C204.469,172.079,205.793,173.403,205.793,175.037z"/>
							<line style="fill:none;stroke:#FFFFFF;stroke-miterlimit:10;" x1="205.389" y1="176.518" x2="207.671" y2="178.801"/>
						</g>
					</g>
					<g>
						<g>
							<polygon style="fill:#B4CBDD;" points="177.19,233.583 166.463,222.856 176.796,212.522 178.917,214.643 170.705,222.856 
								179.311,231.462 							"/>
						</g>
						<g>
							<polygon style="fill:#B4CBDD;" points="308.576,233.583 319.303,222.856 308.97,212.522 306.849,214.643 315.061,222.856 
								306.455,231.462 							"/>
						</g>
					</g>
					<g>
						<rect x="172.383" y="261.475" style="fill:#B4CBDD;" width="49.5" height="3.917"/>
						<rect x="172.383" y="269.272" style="fill:#B4CBDD;" width="141" height="3.917"/>
					</g>
					<g>
						<g>
							<g>
								<polygon style="fill:#F05956;" points="213.588,323.268 191.167,323.268 191.513,303.775 191.565,300.895 191.582,299.916 
									191.608,298.477 191.663,295.37 213.092,295.37 213.147,298.477 213.173,299.916 213.19,300.895 213.242,303.775 								
									"/>
								<g>
									<polygon style="opacity:0.5;fill:#F05956;" points="213.242,303.775 191.513,303.775 191.565,300.895 213.19,300.895 
																			"/>
									<polygon style="opacity:0.5;fill:#F05956;" points="213.173,299.916 191.582,299.916 191.608,298.477 213.147,298.477 
																			"/>
								</g>
								<g>
									<g>
										<path style="fill:#FFEBEB;" d="M206.653,294.467v1.46h-0.87v-1.46c0-2.01-1.63-3.65-3.64-3.65
											c-2.01,0-3.64,1.64-3.64,3.65v1.46h-0.87v-1.46c0-2.49,2.02-4.52,4.51-4.52
											C204.633,289.947,206.653,291.977,206.653,294.467z"/>
									</g>
									<path style="opacity:0.5;fill:#F05956;" d="M198.763,296.077v1.41c0,0.08-0.07,0.15-0.15,0.15h-1.05
										c-0.08,0-0.14-0.07-0.14-0.15v-1.41c0-0.08,0.06-0.15,0.14-0.15h1.05C198.693,295.927,198.763,295.997,198.763,296.077z"/>
									<path style="opacity:0.5;fill:#F05956;" d="M206.883,296.077v1.41c0,0.08-0.06,0.15-0.14,0.15h-1.05
										c-0.08,0-0.15-0.07-0.15-0.15v-1.41c0-0.08,0.07-0.15,0.15-0.15h1.05C206.823,295.927,206.883,295.997,206.883,296.077z"/>
								</g>
							</g>
							<g>
								<g>
									<polygon style="fill:#B4CBDD;" points="218.7,334.048 186.294,334.048 179.812,310.632 225.181,310.632 									"/>
								</g>
								<g>
									<path style="fill:#B4CBDD;" d="M221.084,337.414h-28.978c-0.323,0-0.585-0.262-0.585-0.585
										c0-0.323,0.262-0.585,0.585-0.585h27.691l-3.106-3.566c-0.212-0.244-0.187-0.614,0.057-0.826
										c0.245-0.213,0.614-0.187,0.826,0.057l3.952,4.536c0.151,0.173,0.186,0.418,0.091,0.627
										C221.522,337.28,221.313,337.414,221.084,337.414z"/>
								</g>
								<g>
									<path style="fill:#B4CBDD;" d="M196.496,340.097c0,2.142-1.736,3.878-3.878,3.878c-2.142,0-3.878-1.736-3.878-3.878
										c0-2.142,1.736-3.878,3.878-3.878C194.76,336.219,196.496,337.955,196.496,340.097z"/>
								</g>
								<g>
									<path style="fill:#B4CBDD;" d="M217.912,340.097c0,2.142-1.736,3.878-3.878,3.878c-2.142,0-3.878-1.736-3.878-3.878
										c0-2.142,1.736-3.878,3.878-3.878C216.176,336.219,217.912,337.955,217.912,340.097z"/>
								</g>
								<g>
									<polygon style="fill:#B4CBDD;" points="224.472,313.297 223.365,312.918 225.649,306.242 231.629,306.242 231.629,307.412 
										226.486,307.412 									"/>
								</g>
							</g>
						</g>
						<g>
							<g>
								<rect x="240.079" y="294.91" style="fill:#B4CBDD;" width="26.25" height="3.917"/>
								<rect x="240.079" y="303.848" style="fill:#B4CBDD;" width="65.875" height="3.917"/>
							</g>
							<g>
								<path style="fill:#F05956;" d="M281.123,339.013h-39.254c-0.988,0-1.79-0.801-1.79-1.79v-7.713
									c0-0.989,0.801-1.79,1.79-1.79h39.254c0.988,0,1.79,0.801,1.79,1.79v7.713C282.912,338.211,282.111,339.013,281.123,339.013
									z"/>
								
									<text transform="matrix(1 0 0 1 243.2041 336.067)" style="fill:#FFFFFF; font-family:'Montserrat-Black'; font-size:6.9186px;">BUY NOW</text>
							</g>
							<g>
								<polygon style="fill:#FCC574;" points="245.468,312.617 247.134,315.991 250.858,316.532 248.163,319.159 248.799,322.868 
									245.468,321.117 242.138,322.868 242.774,319.159 240.079,316.532 243.803,315.991 								"/>
								<polygon style="fill:#FCC574;" points="258.904,312.617 260.569,315.991 264.293,316.532 261.598,319.159 262.235,322.868 
									258.904,321.117 255.573,322.868 256.209,319.159 253.514,316.532 257.238,315.991 								"/>
								<polygon style="fill:#FCC574;" points="272.339,312.617 274.005,315.991 277.728,316.532 275.034,319.159 275.67,322.868 
									272.339,321.117 269.008,322.868 269.645,319.159 266.95,316.532 270.674,315.991 								"/>
								<polygon style="fill:#FCC574;" points="285.775,312.617 287.44,315.991 291.164,316.532 288.469,319.159 289.105,322.868 
									285.775,321.117 282.444,322.868 283.08,319.159 280.385,316.532 284.109,315.991 								"/>
								<polygon style="fill:#FCC574;" points="299.21,312.617 300.875,315.991 304.599,316.532 301.905,319.159 302.541,322.868 
									299.21,321.117 295.879,322.868 296.515,319.159 293.821,316.532 297.545,315.991 								"/>
							</g>
						</g>
					</g>
					<g>
						<g>
							<path style="fill:#6376BF;" d="M211.592,239.75h-19.583c-0.459,0-0.831-0.372-0.831-0.831v-32.588
								c0-0.459,0.372-0.831,0.831-0.831h19.583c0.459,0,0.831,0.372,0.831,0.831v32.588
								C212.423,239.378,212.051,239.75,211.592,239.75z"/>
							<rect x="191.178" y="208.167" style="fill:#B4CBDD;" width="21.245" height="28.167"/>
						</g>
						<g>
							<path style="fill:#6376BF;" d="M290.814,237.703h-8.013c-0.745,0-1.349-0.604-1.349-1.349v-28.718
								c0-0.745,0.604-1.349,1.349-1.349h8.013c0.745,0,1.349,0.604,1.349,1.349v28.718
								C292.163,237.099,291.559,237.703,290.814,237.703z"/>
							<g>
								<path style="fill:#B4CBDD;" d="M293.453,229.776h-13.292c-0.627,0-1.135-0.508-1.135-1.135v-13.292
									c0-0.627,0.508-1.135,1.135-1.135h13.292c0.627,0,1.135,0.508,1.135,1.135v13.292
									C294.588,229.268,294.08,229.776,293.453,229.776z"/>
								<path style="fill:#B4CBDD;" d="M278.949,222.667h-0.75c-0.126,0-0.229-0.103-0.229-0.229v-1.708
									c0-0.127,0.103-0.229,0.229-0.229h0.75c0.127,0,0.229,0.103,0.229,0.229v1.708
									C279.178,222.564,279.075,222.667,278.949,222.667z"/>
							</g>
						</g>
						<g>
							<path style="fill:#6376BF;" d="M264.331,233.583h-40.583c-0.759,0-1.375-0.616-1.375-1.375v-25.333
								c0-0.759,0.616-1.375,1.375-1.375h40.583c0.759,0,1.375,0.616,1.375,1.375v25.333
								C265.706,232.967,265.091,233.583,264.331,233.583z"/>
							<g>
								<rect x="240.571" y="231.802" style="fill:#6376BF;" width="6.938" height="6.938"/>
								<rect x="239.071" y="237.552" style="fill:#6376BF;" width="9.938" height="1.188"/>
							</g>
							<rect x="222.373" y="207.583" style="fill:#B4CBDD;" width="43.333" height="24.219"/>
						</g>
					</g>
				</g>
			</g>
			<g style="opacity:0.15;">
				<linearGradient id="SVGID_1_" gradientUnits="userSpaceOnUse" x1="157.1667" y1="197.3218" x2="329.1667" y2="197.3218">
					<stop  offset="0" style="stop-color:#FFFFFF"/>
					<stop  offset="1" style="stop-color:#6376BF"/>
				</linearGradient>
				<polygon style="fill:url(#SVGID_1_);" points="329.167,187.329 157.167,227.264 157.167,207.314 329.167,167.38 				"/>
				
					<linearGradient id="SVGID_00000015339770144300246550000012369762314152404098_" gradientUnits="userSpaceOnUse" x1="157.1667" y1="228.0878" x2="329.1667" y2="228.0878">
					<stop  offset="0" style="stop-color:#FFFFFF"/>
					<stop  offset="1" style="stop-color:#6376BF"/>
				</linearGradient>
				<polygon style="fill:url(#SVGID_00000015339770144300246550000012369762314152404098_);" points="329.167,218.095 
					157.167,258.03 157.167,238.081 329.167,198.146 				"/>
				
					<linearGradient id="SVGID_00000052825176907830495670000003891270188496250003_" gradientUnits="userSpaceOnUse" x1="157.1667" y1="319.1782" x2="329.1667" y2="319.1782">
					<stop  offset="0" style="stop-color:#FFFFFF"/>
					<stop  offset="1" style="stop-color:#6376BF"/>
				</linearGradient>
				<polygon style="fill:url(#SVGID_00000052825176907830495670000003891270188496250003_);" points="329.167,309.185 
					157.167,349.12 157.167,329.171 329.167,289.236 				"/>
			</g>
		</g>
	</g>
	<g>
		<g>
			<g>
				<g>
					<path style="fill:#E28758;" d="M356.037,369.417l3.415,9.393l6.242-3.727c0,0,1.011-1.414,0.062-5.667H356.037z"/>
					<path style="fill:#5669B0;" d="M348.979,384.263l14.847-3.509c0.456-0.108,0.79-0.497,0.828-0.964l0.948-3.96l1.305,3.955
						c0.044,0.132,0.181,0.21,0.317,0.177l2.04-0.481c0.111-0.026,0.199-0.118,0.213-0.232c0.382-3.033-2.025-6.747-2.025-6.747
						l-9.616,2.267l-1.176,2.533c-1.086,2.34-3.186,4.052-5.697,4.644l-2.398,0.565c-0.484,0.114-0.784,0.599-0.67,1.083l0,0
						C348.01,384.077,348.495,384.377,348.979,384.263z"/>
				</g>
				<path style="fill:#E8EEF2;" d="M358.422,276.245c0,0-3.27,7.755-5.02,14.339c-1.75,6.583-10.583,38.775-9.25,46.138
					c1.333,7.362,10.137,36.16,13.015,37.743l9.152-3.256c0,0,0.118-2.244-0.411-5.078c-0.529-2.833-8.29-32.937-8.29-32.937
					l20.444-56.949H358.422z"/>
			</g>
			<g>
				<g>
					<path style="fill:#E28758;" d="M369.159,370.792l0.175,9.577l7.693-1.56l1.564,1.56c0,0,0.323-4.926,0.752-10.057
						C378.52,370.262,371.745,371.133,369.159,370.792z"/>
					<path style="fill:#6376BF;" d="M358.458,384.037l15.256-0.103c0.469-0.003,0.882-0.308,1.022-0.755l1.809-3.648l0.388,4.147
						c0.013,0.139,0.13,0.245,0.269,0.244l2.096-0.013c0.114-0.001,0.22-0.071,0.259-0.178c1.05-2.87-0.466-7.029-0.466-7.029
						l-9.88,0.061l-1.712,2.206c-1.581,2.038-4.011,3.237-6.59,3.253l-2.463,0.015c-0.497,0.003-0.898,0.409-0.895,0.906l0,0
						C357.555,383.64,357.961,384.04,358.458,384.037z"/>
				</g>
				<g>
					<path style="fill:#FFFFFF;" d="M382.847,318.28c-1.41,9.47-0.45,19.89-0.7,25.89s-0.04,24.75-2.04,30.58h-11.68
						c0,0-0.93-4.46-0.94-9.38c0-4.91-0.45-78.26-0.45-78.26l-8.61-10.87h19.63c0,0,7.56,7.43,8.12,14.76
						S384.257,308.82,382.847,318.28z"/>
					<g style="opacity:0.7;">
						<path style="fill:#D4E9FA;" d="M377.347,374.75h-1c1.01-13.39,5.11-68.05,4.82-79.49c-0.26-10.53-7.21-17.04-9.68-19.02h1.55
							c3.07,2.74,8.88,9.2,9.13,19C382.457,306.7,378.377,361.22,377.347,374.75z"/>
					</g>
				</g>
			</g>
		</g>
		<g>
			<g>
				<path style="fill:#E28758;" d="M360.934,234.461c-0.043-0.195-0.201-0.379-0.401-0.39c-0.181-0.01-0.337,0.117-0.48,0.228
					c-0.51,0.398-1.101,0.692-1.725,0.861c-0.126-1.492,0.688-2.877,1.309-4.239c0.159-0.349,0.258-0.857-0.082-1.035
					c-0.295-0.154-0.632,0.108-0.845,0.363c-0.524,0.625-0.944,1.338-1.237,2.099c0.314-0.93,0.627-1.86,0.94-2.79
					c0.096-0.284,0.153-0.675-0.112-0.815c-0.21-0.111-0.46,0.036-0.643,0.188c-0.97,0.803-1.673,1.922-1.975,3.144
					c0.236-1.015,0.472-2.03,0.709-3.045c0.029-0.124,0.057-0.261-0.002-0.375c-0.08-0.154-0.295-0.195-0.458-0.133
					c-0.163,0.062-0.284,0.199-0.394,0.333c-0.748,0.906-1.349,1.933-1.773,3.029c0.019-0.477,0.037-0.954,0.056-1.43
					c0.011-0.283-0.037-0.651-0.314-0.715c-0.259-0.061-0.467,0.211-0.58,0.452c-0.571,1.217-0.703,2.602-0.593,3.941
					c0.073,0.891,0.252,1.768,0.462,2.639l-0.011-0.003l-3.004,7.242c2.032,0.846,4.085,1.661,6.152,2.444l2.221-7.896
					c1.299-0.767,2.284-1.996,2.723-3.504C360.931,234.86,360.977,234.657,360.934,234.461z"/>
				<g>
					<path style="fill:#5669B0;" d="M358.568,239.083l-6.458-1.75c0,0-12.292,25.292-10.167,30.958
						c2.125,5.667,8.333,2.875,9.708,1.083s21.708-19.625,21.125-22.75c-0.583-3.125-4.8-7.375-8.733-7.25
						c-3.933,0.125-10.1,12.625-10.1,12.625L358.568,239.083z"/>
					<path style="opacity:0.5;fill:#5669B0;" d="M353.943,252c0,0-6.276,9.571-5.61,10.202C349,262.833,353.326,253.722,353.943,252
						z"/>
				</g>
			</g>
			<g>
				<g>
					<rect x="364.722" y="227.484" style="fill:#E28758;" width="8.374" height="11.972"/>
					<path style="fill:#C26144;" d="M364.722,233.766c0,0,4.443-0.053,6.276-2.069c0,0-2.328,4.99-6.276,4.766V233.766z"/>
				</g>
				<path style="fill:#6376BF;" d="M364.37,239.219c0,0-0.656-2.875-0.313-3c0.344-0.125,9.328-0.184,9.984,0.252
					c0.656,0.436-0.797,2.904-0.797,2.904s6.754,4.805,6.455,9.749c-0.299,4.944-1.639,27.121-1.639,27.121h-19.639
					c0,0,0.042-10.219-1.208-13.716c-1.25-3.497-3.719-12.216,1.219-17.716S364.37,239.219,364.37,239.219z"/>
			</g>
			<g>
				<g>
					<path style="fill:#FFFFFF;" d="M363.235,286.708h-1.5v-9.239c0-2.886,2.159-5.311,5.022-5.64l0.172,1.49
						c-2.106,0.242-3.694,2.026-3.694,4.15V286.708z"/>
				</g>
				<path style="opacity:0.5;fill:#6376BF;" d="M367.417,270.088c0,0-0.726-17.921-0.716-17.505
					c0.01,0.416-1.617,19.247-1.617,19.247L367.417,270.088z"/>
				<g>
					<path style="fill:#E28758;" d="M350.021,284.039c-0.595-2.107-0.972-4.297-0.945-6.342l-6.139,1.079
						c-1.254-0.839-2.788-1.193-4.338-0.935c-0.198,0.033-0.401,0.079-0.558,0.203c-0.157,0.124-0.255,0.345-0.177,0.53
						c0.07,0.167,0.251,0.253,0.414,0.334c0.58,0.288,1.101,0.692,1.523,1.182c-1.29,0.761-2.891,0.627-4.388,0.657
						c-0.383,0.008-0.884,0.138-0.897,0.522c-0.011,0.333,0.371,0.522,0.694,0.604c0.79,0.201,1.614,0.271,2.428,0.205
						c-0.974,0.121-1.948,0.241-2.922,0.362c-0.298,0.037-0.675,0.155-0.686,0.454c-0.009,0.237,0.232,0.399,0.448,0.499
						c1.144,0.526,2.457,0.674,3.69,0.417c-1.017,0.227-2.034,0.454-3.052,0.681c-0.125,0.028-0.26,0.062-0.337,0.164
						c-0.104,0.139-0.048,0.351,0.078,0.471c0.126,0.12,0.302,0.17,0.471,0.211c1.141,0.281,2.327,0.378,3.499,0.285
						c-0.438,0.19-0.875,0.38-1.313,0.57c-0.26,0.113-0.57,0.316-0.509,0.593c0.057,0.26,0.392,0.33,0.658,0.327
						c1.344-0.013,2.65-0.494,3.809-1.174c0.772-0.452,1.484-0.994,2.178-1.56l0.002,0.011L350.021,284.039z"/>
					<g>
						<path style="fill:#6376BF;" d="M376.877,281.1c-2.31,2.92-22.43,3.64-29.32,3.8c-0.38,0.01-0.72,0.01-1.01,0.02
							c-0.83,0.01-1.3,0.02-1.3,0.02l-0.85-6.81c0,0,0.51-0.1,1.38-0.27c0.29-0.06,0.62-0.12,0.99-0.2
							c5.66-1.11,19.59-3.85,20.83-4.15c0,0-1.32-24.14-0.82-26.2s2.63-5.37,6.59-5.5c0,0,5.64,0.62,6.21,5.72
							C380.147,252.63,379.657,277.58,376.877,281.1z"/>
						<path style="opacity:0.5;fill:#6376BF;" d="M367.595,273.506c0,0,3.259,1.244,3.072,3.306L367.595,273.506z"/>
						<g style="opacity:0.4;">
							<path style="fill:#6376BF;" d="M347.557,284.9c-0.38,0.01-0.72,0.01-1.01,0.02l-0.77-7.06c0.29-0.06,0.62-0.12,0.99-0.2
								L347.557,284.9z"/>
						</g>
					</g>
				</g>
				<g>
					<g>
						<polygon style="fill:#F05956;" points="378.057,307.27 356.017,307.27 356.157,305.31 356.237,304.31 357.667,284.94 
							376.417,284.94 377.837,304.31 377.917,305.31 						"/>
						<g>
							<path style="fill:#FFFFFF;" d="M373.089,286.708h-1.5v-9.239c0-2.303-1.874-4.177-4.178-4.177
								c-0.162,0-0.324,0.009-0.482,0.027l-0.172-1.49c0.215-0.024,0.434-0.037,0.654-0.037c3.131,0,5.678,2.547,5.678,5.677
								V286.708z"/>
						</g>
						<polygon style="fill:#D94946;" points="376.412,284.938 380.152,307.271 378.061,307.271 						"/>
					</g>
					<g style="opacity:0.5;">
						<polygon style="fill:#F05956;" points="377.917,305.31 356.157,305.31 356.237,304.31 377.837,304.31 						"/>
					</g>
				</g>
			</g>
		</g>
		<g>
			<g>
				<path style="fill:#E28758;" d="M376.794,222.093c-0.215-0.161-0.43-0.248-0.642-0.29c-0.197-1.074-0.485-2.116-0.74-3.099
					c-0.318-1.217-1.207-2.151-2.341-2.478c-2.786-0.806-8.216-1.848-11.868,0.851c-0.811,0.601-1.315,1.574-1.393,2.63
					c-0.137,1.862-0.342,2.752-0.303,5.909c0.015,1.178,0.068,2.317,0.166,3.338c0.171,1.701,0.479,3.06,1.002,3.666
					c2.087,2.405,10.753,0.963,14.184-3.69c0.559-0.757,0.928-1.531,1.168-2.309C377.415,225.341,377.817,222.86,376.794,222.093z"
					/>
				<g>
					<path style="fill:#F09E73;" d="M370.271,227.303c0,0.948-0.769,1.717-1.717,1.717c-0.948,0-1.717-0.769-1.717-1.717
						c0-0.948,0.769-1.717,1.717-1.717C369.503,225.586,370.271,226.355,370.271,227.303z"/>
					<path style="fill:#F09E73;" d="M360.91,227.302c0,0.782-0.523,1.447-1.241,1.652c-0.098-1.022-0.152-2.16-0.166-3.338
						C360.304,225.757,360.91,226.456,360.91,227.302z"/>
					<path style="fill:#C26144;" d="M363.338,222.736c0.251,0.418,0.307,0.948,0.238,1.437c-0.063,0.495-0.242,0.962-0.457,1.397
						c-0.113,0.219-0.242,0.419-0.299,0.592c-0.064,0.169-0.043,0.34,0.036,0.52c0.161,0.356,0.591,0.575,1.068,0.631
						c-0.446,0.148-1.067,0.05-1.396-0.435c-0.167-0.223-0.229-0.557-0.153-0.842c0.078-0.282,0.214-0.481,0.308-0.685
						c0.211-0.407,0.391-0.823,0.52-1.253C363.329,223.665,363.392,223.217,363.338,222.736z"/>
					<path style="fill:#523329;" d="M365.038,221.891c0.189-0.177,0.405-0.253,0.64-0.285c0.234-0.024,0.476-0.001,0.709,0.061
						c0.235,0.056,0.452,0.185,0.626,0.344c0.184,0.15,0.3,0.356,0.395,0.552c0.032,0.067,0.004,0.148-0.063,0.181
						c-0.051,0.024-0.108,0.014-0.148-0.02l-0.012-0.011c-0.147-0.13-0.289-0.247-0.444-0.327c-0.151-0.086-0.315-0.128-0.478-0.154
						c-0.333-0.057-0.664,0.074-1.039,0.047l-0.05-0.004c-0.122-0.009-0.214-0.116-0.205-0.238
						C364.972,221.979,364.999,221.927,365.038,221.891z"/>
					<path style="fill:#523329;" d="M362.278,222.278c-0.374,0.027-0.705-0.103-1.039-0.047c-0.163,0.025-0.327,0.067-0.478,0.154
						c-0.155,0.08-0.297,0.197-0.444,0.327l-0.012,0.011c-0.056,0.049-0.142,0.044-0.191-0.012c-0.037-0.042-0.043-0.101-0.02-0.148
						c0.094-0.196,0.211-0.402,0.395-0.552c0.173-0.158,0.39-0.288,0.626-0.344c0.233-0.062,0.475-0.085,0.709-0.061
						c0.235,0.032,0.451,0.108,0.64,0.285c0.09,0.084,0.094,0.225,0.01,0.314c-0.04,0.042-0.092,0.066-0.145,0.07L362.278,222.278z"
						/>
					<path style="fill:#C26144;" d="M363.407,228.816c0.605-0.015,1.153-0.042,1.6-0.259c0.225-0.1,0.42-0.252,0.587-0.455
						c0.179-0.195,0.309-0.442,0.481-0.701c0.027,0.302-0.008,0.623-0.161,0.91c-0.133,0.297-0.395,0.544-0.697,0.687
						c-0.305,0.14-0.64,0.184-0.952,0.144C363.953,229.104,363.654,229.003,363.407,228.816z"/>
					<path style="fill:#523329;" d="M366.074,224.585c0,0.547-0.264,0.99-0.591,0.99s-0.591-0.443-0.591-0.99s0.264-0.99,0.591-0.99
						S366.074,224.039,366.074,224.585z"/>
					<path style="fill:#523329;" d="M361.879,224.585c0,0.547-0.264,0.99-0.591,0.99c-0.326,0-0.591-0.443-0.591-0.99
						s0.265-0.99,0.591-0.99C361.614,223.596,361.879,224.039,361.879,224.585z"/>
					<path style="fill:#C26144;" d="M375.943,224.316c-0.116-0.221-0.342-0.329-0.557-0.352c-0.217-0.027-0.425,0.049-0.615,0.158
						c-0.372,0.236-0.702,0.592-0.971,0.959c-0.067,0.091-0.195,0.111-0.286,0.044c-0.084-0.062-0.107-0.176-0.057-0.265
						c0.183-0.33,0.528-0.479,0.836-0.535c0.157-0.029,0.32-0.033,0.492,0c0.169,0.032,0.356,0.127,0.462,0.291
						c0.208,0.326,0.127,0.717-0.091,0.958c-0.22,0.238-0.522,0.334-0.805,0.353c0.261-0.113,0.506-0.266,0.634-0.483
						c0.128-0.201,0.116-0.485-0.011-0.627c-0.114-0.142-0.363-0.151-0.606-0.099c-0.241,0.047-0.453,0.172-0.555,0.343
						l-0.343-0.221c0.312-0.405,0.676-0.768,1.162-0.993c0.24-0.108,0.534-0.154,0.795-0.068
						C375.68,223.858,375.909,224.064,375.943,224.316z"/>
				</g>
			</g>
			<path style="fill:#523329;" d="M388.601,239.802c-1.514-2.306-3.55-4.22-5.202-6.428c-1.652-2.209-2.318-4.42-2.612-7.637
				c0,0-0.579-10.56-8.795-13.024c-8.216-2.464-16.884,3.643-12.49,12.342l0.054-2.32c0.842-2.358,3.376-2.861,3.376-2.861
				c2.604,1.824,7.063,0.594,7.063,0.594c0.514,2.664,2.18,3.248,2.988,3.374c0.023,0.048,0.043,0.096,0.048,0.14
				c0.057,0.212-0.18,0.584-0.366,1.03c-0.173,0.437-0.278,0.931-0.191,1.424c0.085,0.484,0.364,0.949,0.81,1.183
				c0.075,0.036,0.172,0.015,0.219-0.057c0.051-0.078,0.03-0.182-0.048-0.233c-0.303-0.212-0.468-0.588-0.483-0.954
				c-0.016-0.368,0.109-0.741,0.298-1.081c0.154-0.331,0.555-0.656,0.595-1.338c-0.004-0.209-0.055-0.387-0.121-0.551
				c0.49-0.668,1.501-1.788,2.644-1.538c1.607,0.351,0.664,3.768-0.583,4.95c-1.248,1.182-3.341,2.827-3.341,4.88s0,4.563,0,4.563
				s0.861,0.133,1.14,0.21c0.264,0.072,0.48,0.175,0.235,1.068c-0.245,0.893-0.594,1.837-0.594,1.837s5.134,4.222,5.698,6.604
				c0.564,2.382,0.735,14.503,0.735,14.503c4.679,0.388,8.882-2.883,10.628-7.241C392.052,248.883,391.177,243.727,388.601,239.802z
				"/>
		</g>
	</g>
	<g>
		<g>
			<g>
				<g>
					<path style="fill:#FFB894;" d="M134.777,357.606c-2.697,11.099-4.735,20.129-4.735,20.129l8.583,0.667l6.567-19.608
						C141.714,358.573,138.247,358.091,134.777,357.606z"/>
					<path style="fill:#5669B0;" d="M150.227,383.746c-0.113-0.785-0.763-1.404-1.489-1.724c-0.726-0.32-1.53-0.398-2.315-0.51
						c-1.521-0.218-3.021-0.579-4.473-1.077c-0.655-0.225-1.261-0.555-1.557-1.181c0.558-0.849,0.789-1.907,0.635-2.911
						c-0.097-0.633-0.355-1.26-0.826-1.693c-0.472-0.433-1.178-0.638-1.777-0.412c-0.883,0.332-1.214,1.372-1.688,2.187
						c-0.49,0.844-1.357,1.581-2.329,1.506c-0.766-0.06-1.401-0.598-2.121-0.866c-0.704-0.262-1.527-0.211-2.238,0.074
						c-0.324,0.13-0.562,0.406-0.638,0.747c-0.233,1.042-0.69,3.549-0.156,5.232c0.121,0.381,0.481,0.633,0.881,0.633
						L150.227,383.746z"/>
				</g>
				<path style="fill:#E8EEF2;" d="M140.889,277.819c0,0,14.153,53.333,13.819,57.25c-0.333,3.917-10.583,28.167-10.583,28.167
					h-11.583l7.074-28.23l-17.241-57.186H140.889z"/>
			</g>
			<g>
				<g>
					<path style="fill:#FFB894;" d="M131.435,357.15c-1.967-0.258-3.936-0.495-5.907-0.725c-1.182-0.074-2.363-0.149-3.543-0.232
						c-0.284-0.02-0.576-0.035-0.863-0.053c-2.872,11.76-5.093,21.595-5.093,21.595l8.583,0.667l7.105-21.214
						C131.623,357.175,131.529,357.162,131.435,357.15z"/>
					<path style="fill:#6376BF;" d="M136.542,383.746c-0.113-0.785-0.763-1.404-1.489-1.724c-0.726-0.32-1.53-0.398-2.315-0.51
						c-1.521-0.218-3.021-0.579-4.473-1.077c-0.655-0.225-1.261-0.555-1.557-1.181c0.558-0.849,0.789-1.907,0.635-2.911
						c-0.097-0.633-0.355-1.26-0.826-1.693c-0.471-0.433-1.178-0.638-1.777-0.412c-0.883,0.332-1.214,1.372-1.688,2.187
						c-0.49,0.844-1.357,1.581-2.329,1.506c-0.766-0.06-1.401-0.598-2.121-0.866c-0.704-0.262-1.527-0.211-2.237,0.074
						c-0.324,0.13-0.563,0.406-0.639,0.747c-0.233,1.042-0.69,3.549-0.156,5.232c0.121,0.381,0.481,0.633,0.881,0.633
						L136.542,383.746z"/>
				</g>
				<path style="fill:#FFFFFF;" d="M140.889,277.819h-25.826c0,0-7.418,8.167-2.574,20.792
					c4.844,12.625,13.114,35.539,13.114,35.539l-7.52,29.086h12.851c0,0,9.182-25.172,9.478-29.086
					c0.296-3.914-8.829-41.914-8.829-41.914L140.889,277.819z"/>
			</g>
		</g>
		<g>
			<g>
				<g>
					<path style="fill:#FFB894;" d="M144.33,255.597c-2.594,0.614-5.186,1.406-7.767,2.154c-1.229,0.387-2.457,0.715-3.656,1.008
						l5.678,21.848c0.482,1.945,2.549,3.127,5.053,2.639l0.049-0.01c2.503-0.488,4.086-2.186,3.802-4.169L144.33,255.597z"/>
					<path style="fill:#FFB894;" d="M172.159,287.506l1.482-5.457l-29.413-7.369c-2.449-0.663-4.977,0.805-5.648,3.281l0,0
						c-0.671,2.475,0.771,5.02,3.219,5.683L172.159,287.506z"/>
					<path style="fill:#FFB894;" d="M177.666,281.334c0.195,0.047,0.394,0.108,0.543,0.243c0.148,0.135,0.229,0.363,0.139,0.541
						c-0.082,0.162-0.269,0.235-0.437,0.304c-0.598,0.246-1.147,0.612-1.604,1.07c1.233,0.851,2.838,0.832,4.33,0.969
						c0.382,0.035,0.872,0.201,0.857,0.584c-0.013,0.333-0.408,0.494-0.735,0.553c-0.803,0.144-1.63,0.155-2.436,0.031
						c0.963,0.19,1.926,0.38,2.889,0.569c0.294,0.058,0.662,0.202,0.652,0.502c-0.008,0.237-0.26,0.382-0.482,0.465
						c-1.178,0.443-2.499,0.497-3.71,0.153c0.998,0.299,1.997,0.598,2.995,0.897c0.122,0.037,0.255,0.081,0.324,0.188
						c0.094,0.146,0.023,0.353-0.112,0.464c-0.135,0.111-0.313,0.148-0.485,0.177c-1.158,0.199-2.348,0.211-3.51,0.035
						c0.423,0.221,0.846,0.441,1.269,0.662c0.251,0.131,0.546,0.355,0.465,0.627c-0.076,0.255-0.415,0.301-0.68,0.279
						c-1.339-0.109-2.608-0.682-3.715-1.443c-1.108-0.761-2.074-1.707-3.033-2.647c-0.156-0.153-0.315-0.31-0.404-0.509
						c-0.103-0.229-0.101-0.492-0.069-0.741c0.11-0.855,0.562-1.641,1.156-2.266C173.365,281.475,175.546,280.823,177.666,281.334z"
						/>
					<path style="fill:#DE4744;" d="M133.132,261.252c0,0-5.626-14.8,1.562-17.492c7.188-2.692,10.601,5.473,11.098,14.95
						L133.132,261.252z"/>
				</g>
				<g>
					<g>
						<polygon style="fill:#FFB894;" points="125.511,238.935 135.057,239.447 135.225,227.467 126.864,227.018 						"/>
						<path style="fill:#F29272;" d="M135.137,233.754c0,0-4.682-0.305-6.404-2.416c0,0,2.412,5.133,6.366,5.121L135.137,233.754z"
							/>
					</g>
					<g>
						<path style="fill:#FFB894;" d="M114.547,250.685c0.448-5.804,10.965-11.75,10.965-11.75l1.184,0.063l7.178,0.385l1.184,0.064
							c0,0,9.82,7.037,9.645,12.855c-0.087,2.874-3.813,25.516-3.813,25.516l-12.627-0.923l-12.653-0.433
							C115.609,276.463,114.326,253.552,114.547,250.685z"/>
						<g>
							<path style="fill:#F05956;" d="M141.667,277.125c-0.06,0.4-0.41,0.69-0.82,0.69h-26c-0.18,0-0.34-0.14-0.35-0.32
								c-0.24-2.95-1.9-25.21,0.57-29.76c0.5-0.92,1.17-1.8,1.94-2.62c0.01-0.01,0.01-0.01,0.02-0.02c0.32-0.35,0.66-0.68,1.01-1
								c0,0,0.01-0.02,0.02-0.02c2.08-1.93,4.5-3.47,6.01-4.35c0.36-0.21,0.67-0.38,0.91-0.51h0.01c0.33-0.18,0.52-0.28,0.52-0.28
								s4.34,2.29,9.55,0.51c0,0,0.31,0.21,0.81,0.58c0.24,0.18,0.53,0.4,0.85,0.65c2.64,2.06,7.53,6.35,7.99,10.12
								C145.267,255.435,142.307,273.365,141.667,277.125z"/>
							<g style="opacity:0.4;">
								<path style="fill:#F05956;" d="M136.717,240.675c-2.11,1.33-4.16,1.99-6.12,1.99c-0.49,0-0.97-0.04-1.45-0.12
									c-2.52-0.44-4.23-1.9-5.08-2.82c0.36-0.21,0.67-0.38,0.91-0.51h0.01c0.8,0.82,2.27,1.99,4.34,2.34
									c2.05,0.35,4.24-0.17,6.54-1.53C136.107,240.205,136.397,240.425,136.717,240.675z"/>
							</g>
						</g>
					</g>
				</g>
			</g>
			<g>
				<g>
					<rect x="156.84" y="261.252" style="fill:#FCC574;" width="31.453" height="30.136"/>
					<rect x="144.16" y="261.252" style="fill:#E3AA59;" width="12.68" height="30.136"/>
					<polygon style="fill:#FFD69C;" points="191.917,269.156 160.463,269.156 156.84,261.252 188.294,261.252 					"/>
					<polygon style="fill:#FCC574;" points="154.041,269.156 141.361,269.156 144.16,261.252 156.84,261.252 					"/>
					<polygon style="opacity:0.5;fill:#FCC574;" points="156.84,262.877 159.917,270.86 188.294,270.86 188.294,269.156 
						160.463,269.156 156.84,261.252 					"/>
					<polygon style="opacity:0.5;fill:#E3AA59;" points="156.84,262.877 154.729,269.892 144.16,269.892 144.16,269.267 
						154.041,269.156 156.84,261.252 					"/>
					<g>
						<rect x="179.833" y="277.457" style="opacity:0.5;fill:#FCC574;" width="6.788" height="4.306"/>
						<rect x="167.625" y="282.939" style="opacity:0.5;fill:#FCC574;" width="18.996" height="1.171"/>
						<rect x="179.625" y="285.323" style="opacity:0.5;fill:#FCC574;" width="6.996" height="1.171"/>
					</g>
				</g>
				<g>
					<g>
						<g>
							<g>
								<path style="fill:#FFB894;" d="M160.941,280.518c0.195,0.047,0.394,0.108,0.542,0.243c0.148,0.135,0.229,0.363,0.139,0.541
									c-0.082,0.162-0.269,0.235-0.437,0.304c-0.599,0.246-1.147,0.612-1.604,1.07c1.233,0.851,2.838,0.832,4.33,0.969
									c0.382,0.035,0.872,0.201,0.857,0.585c-0.013,0.332-0.408,0.494-0.735,0.553c-0.803,0.144-1.63,0.155-2.436,0.031
									c0.963,0.19,1.926,0.38,2.889,0.57c0.294,0.058,0.662,0.202,0.652,0.502c-0.008,0.237-0.26,0.382-0.482,0.465
									c-1.178,0.443-2.499,0.497-3.71,0.153c0.998,0.299,1.997,0.598,2.995,0.897c0.122,0.037,0.255,0.081,0.324,0.188
									c0.094,0.146,0.023,0.353-0.112,0.464c-0.135,0.11-0.313,0.148-0.485,0.177c-1.158,0.199-2.348,0.211-3.51,0.035
									c0.423,0.221,0.846,0.441,1.269,0.662c0.251,0.131,0.546,0.356,0.465,0.627c-0.076,0.255-0.415,0.301-0.68,0.279
									c-1.339-0.109-2.608-0.682-3.715-1.443c-1.108-0.761-2.074-1.707-3.033-2.647c-0.156-0.153-0.315-0.31-0.404-0.509
									c-0.103-0.229-0.101-0.492-0.069-0.741c0.11-0.855,0.562-1.641,1.157-2.266C156.64,280.658,158.822,280.007,160.941,280.518
									z"/>
							</g>
							<path style="fill:#FFB894;" d="M118.419,260.776c0,0,2.957,20.517,6.654,21.926c3.698,1.408,30.361,3.862,30.361,3.862
								l1.482-5.457l-25.113-6.292l-2.213-16.441L118.419,260.776z"/>
							<g>
								<path style="fill:#F05956;" d="M130.367,258.375l-12.66,2.54c0,0-0.19-0.51-0.46-1.35c-0.09-0.28-0.19-0.6-0.29-0.96
									c-1.25-4.27-3.09-13.16,2.31-15.18c6.5-2.43,9.91,4,10.87,12.27c0.04,0.33,0.08,0.66,0.11,1
									C130.297,257.245,130.337,257.805,130.367,258.375z"/>
								<g style="opacity:0.4;">
									<path style="fill:#F05956;" d="M130.247,256.695l-13,2.87c-0.09-0.28-0.19-0.6-0.29-0.96l13.18-2.91
										C130.177,256.025,130.217,256.355,130.247,256.695z"/>
								</g>
							</g>
						</g>
					</g>
					<path style="opacity:0.5;fill:#F05956;" d="M129.613,251.173c0,0,0.892,6.28,0.754,7.202l-0.778,0l2.213,16.441l9.864,2.31
						l-8.759-5.078L129.613,251.173z"/>
				</g>
			</g>
		</g>
		<g>
			<g>
				<path style="fill:#FFB894;" d="M140.581,219.313c-0.022-1.059-0.472-2.057-1.25-2.701c-3.502-2.89-8.789-1.547-11.614-0.89
					c-1.15,0.266-2.088,1.151-2.471,2.349c-0.302,0.953-0.6,2.002-0.798,3.101c-0.315-0.028-0.649,0.036-0.989,0.264
					c-1.221,0.817-0.692,4.003,1.176,5.085c0.23,0.744,0.562,1.48,1.032,2.194c3.177,4.83,11.111,6.385,13.324,4.096
					c0.555-0.577,0.935-1.918,1.197-3.607c0.152-1.015,0.267-2.149,0.345-3.325C140.74,222.729,140.618,221.18,140.581,219.313z"/>
				<g>
					<path style="fill:#F29272;" d="M135.873,222.747c-0.273,0.404-0.357,0.93-0.315,1.422c0.037,0.498,0.19,0.974,0.381,1.419
						c0.101,0.225,0.22,0.431,0.266,0.607c0.055,0.172,0.025,0.342-0.063,0.517c-0.18,0.347-0.621,0.542-1.1,0.573
						c0.438,0.172,1.062,0.107,1.417-0.36c0.179-0.214,0.259-0.544,0.198-0.833c-0.063-0.285-0.188-0.492-0.271-0.701
						c-0.189-0.417-0.346-0.843-0.452-1.279C135.832,223.674,135.793,223.224,135.873,222.747z"/>
					<path style="fill:#523329;" d="M134.221,221.811c-0.179-0.187-0.391-0.275-0.624-0.319c-0.232-0.037-0.475-0.027-0.711,0.023
						c-0.238,0.043-0.462,0.161-0.643,0.31c-0.191,0.14-0.319,0.339-0.424,0.53c-0.036,0.065-0.012,0.148,0.053,0.184
						c0.049,0.027,0.108,0.02,0.149-0.012l0.013-0.01c0.154-0.121,0.301-0.231,0.461-0.302c0.156-0.078,0.321-0.111,0.486-0.128
						c0.336-0.039,0.659,0.11,1.035,0.102l0.05-0.001c0.123-0.002,0.22-0.104,0.218-0.227
						C134.282,221.903,134.258,221.85,134.221,221.811z"/>
					<path style="fill:#523329;" d="M136.956,222.346c0.372,0.048,0.71-0.065,1.04,0.009c0.162,0.034,0.323,0.085,0.469,0.179
						c0.151,0.088,0.286,0.213,0.426,0.35l0.011,0.011c0.053,0.052,0.139,0.051,0.191-0.002c0.039-0.04,0.048-0.098,0.028-0.147
						c-0.084-0.201-0.189-0.412-0.365-0.572c-0.165-0.167-0.374-0.309-0.606-0.377c-0.229-0.075-0.47-0.111-0.705-0.099
						c-0.237,0.019-0.456,0.083-0.654,0.25c-0.094,0.079-0.106,0.219-0.027,0.313c0.037,0.044,0.088,0.07,0.141,0.077
						L136.956,222.346z"/>
					<path style="fill:#F29272;" d="M135.479,228.814c-0.603-0.047-1.149-0.104-1.583-0.344c-0.219-0.112-0.406-0.275-0.562-0.485
						c-0.168-0.204-0.285-0.458-0.442-0.726c-0.044,0.3-0.025,0.622,0.112,0.917c0.117,0.303,0.365,0.564,0.659,0.723
						c0.298,0.156,0.629,0.218,0.943,0.195C134.918,229.072,135.222,228.987,135.479,228.814z"/>
					<path style="fill:#523329;" d="M133.042,224.447c-0.029,0.546,0.211,1.002,0.537,1.02c0.326,0.017,0.614-0.411,0.643-0.957
						c0.029-0.546-0.211-1.002-0.537-1.02S133.071,223.901,133.042,224.447z"/>
					<path style="fill:#523329;" d="M137.231,224.671c-0.029,0.546,0.211,1.003,0.537,1.02c0.326,0.018,0.613-0.411,0.643-0.957
						c0.029-0.546-0.211-1.003-0.537-1.02C137.548,223.697,137.26,224.126,137.231,224.671z"/>
					<path style="fill:#F29272;" d="M123.649,223.249c0.128-0.214,0.359-0.31,0.575-0.321c0.219-0.015,0.422,0.072,0.605,0.191
						c0.359,0.255,0.669,0.629,0.918,1.009c0.062,0.094,0.188,0.121,0.283,0.059c0.087-0.057,0.116-0.17,0.072-0.262
						c-0.165-0.34-0.502-0.506-0.806-0.579c-0.155-0.037-0.317-0.051-0.491-0.026c-0.17,0.023-0.362,0.108-0.476,0.266
						c-0.225,0.314-0.165,0.709,0.039,0.961c0.207,0.249,0.503,0.361,0.785,0.395c-0.254-0.127-0.492-0.293-0.607-0.516
						c-0.117-0.208-0.09-0.491,0.045-0.625c0.121-0.136,0.371-0.131,0.61-0.066c0.238,0.06,0.443,0.196,0.535,0.372l0.354-0.202
						c-0.29-0.422-0.634-0.803-1.107-1.054c-0.234-0.121-0.525-0.182-0.79-0.111C123.935,222.806,123.696,222.999,123.649,223.249z"
						/>
				</g>
			</g>
			<path style="fill:#523329;" d="M143.292,216.902c-1.375-3.542-4.518-0.702-5.833-3.167c-1.315-2.465-6.458-4.333-8.625-1.875
				c-2.167,2.458-2.292,2.042-5.184,2.25c-2.893,0.208-3.399,4.125-2.107,6.625c1.292,2.5-0.708,3.708-0.208,7.443
				c0.5,3.735,5.021,3.323,5.021,3.323l0.333-1.503c-0.953-0.885-1.636-3.482-1.636-3.482c-2.469-1.457-2.23-3.64-1.892-4.473
				c0.206-0.506,0.744-0.753,1.276-0.694c0.152,0.203,2.725,3.599,3.897,2.673c1.206-0.952,1.921-3.294,3.226-4.351
				c0.925-0.55,1.971-0.817,3.232-0.186c1.959,0.979,3.663,0.884,4.709,0.653c0.555-0.122,1.07,0.316,1.052,0.883l-0.228,7.157
				c0,0,3.051-3.11,2.218-5.027C141.708,221.235,144.667,220.444,143.292,216.902z"/>
		</g>
	</g>
	<g>
		<rect x="21.833" y="383.75" style="fill:#B4CBDD;" width="456.333" height="3"/>
	</g>
</g>
<g id="DESIGNED_BY_FREEPIK">
	<g id="XMLID_258_">
		<g id="XMLID_287_">
			<g id="XMLID_306_">
				<path id="XMLID_314_" style="fill:#9EB7C7;" d="M260.104,465.465c-0.433,0.443-0.804,0.932-1.108,1.453l-0.465-0.241
					c-0.067-0.297-0.35-0.502-0.659-0.466c-0.331,0.039-0.567,0.339-0.529,0.67c0.039,0.331,0.339,0.567,0.67,0.528
					c0.065-0.007,0.127-0.025,0.184-0.052l0.451,0.234c-0.251,0.554-0.433,1.139-0.539,1.743l0.747,0.132
					c0.229-1.306,0.85-2.507,1.792-3.473L260.104,465.465z"/>
				<path id="XMLID_313_" style="fill:#9EB7C7;" d="M265.591,463.164c-0.171,0-0.341,0.006-0.509,0.017l-0.074-0.626
					c0.188-0.149,0.296-0.389,0.266-0.645c-0.046-0.393-0.402-0.674-0.795-0.628c-0.394,0.046-0.675,0.402-0.628,0.796
					c0.03,0.254,0.189,0.461,0.404,0.563l0.073,0.624c-0.714,0.116-1.402,0.332-2.06,0.646l0.327,0.685
					c0.935-0.447,1.941-0.674,2.995-0.674c0.497,0,0.993,0.053,1.476,0.158l0.16-0.741
					C266.692,463.222,266.142,463.164,265.591,463.164z"/>
				<path id="XMLID_312_" style="fill:#9EB7C7;" d="M272.194,465.711c0.331-0.04,0.566-0.341,0.525-0.672
					c-0.04-0.331-0.341-0.566-0.672-0.525c-0.31,0.038-0.535,0.304-0.53,0.608l-0.416,0.363c-0.418-0.43-0.89-0.813-1.407-1.14
					l-0.404,0.642c1.135,0.715,2.021,1.727,2.564,2.925l0.69-0.313c-0.251-0.554-0.567-1.071-0.942-1.545l0.402-0.351
					C272.065,465.715,272.128,465.719,272.194,465.711z"/>
				<path id="XMLID_311_" style="fill:#9EB7C7;" d="M265.044,473.372c-0.386,0.023-0.775,0.035-1.157,0.035
					c-0.88,0-1.733-0.061-2.479-0.18c-0.391-0.062-0.846-0.154-1.271-0.292c1.047,1.861,3.069,3.125,5.389,3.125
					c2.855,0,5.263-1.916,5.949-4.503c-0.682,0.449-1.505,0.825-2.458,1.122C267.838,473.047,266.463,473.287,265.044,473.372z"/>
				<path id="XMLID_307_" style="fill:#9EB7C7;" d="M265.591,464.68c-3.351,0-6.079,2.666-6.079,5.943
					c0,0.425,0.046,0.849,0.137,1.261c0.674,0.483,2.706,0.891,5.348,0.731c2.88-0.174,5.297-0.958,6.672-2.159
					c-0.005-0.194-0.02-0.39-0.045-0.581C271.244,466.914,268.65,464.68,265.591,464.68z M263.432,471.195
					c-1.02,0-1.85-0.83-1.85-1.85c0-1.021,0.83-1.851,1.85-1.851c1.02,0,1.85,0.83,1.85,1.851
					C265.282,470.365,264.452,471.195,263.432,471.195z M268.169,470.287c-0.75,0-1.36-0.61-1.36-1.36s0.61-1.36,1.36-1.36
					s1.36,0.61,1.36,1.36S268.919,470.287,268.169,470.287z"/>
			</g>
			<path id="XMLID_304_" style="fill:#9EB7C7;" d="M281.595,466.547c-0.295-0.116-0.806-0.31-1.383-0.238
				c-0.551,0.069-0.844,0.341-0.844,1.007v0.866h2.229v1.717h-2.229v5.455h-1.932v-5.455h-1.339v-1.717h1.339v-0.889
				c0-1.68,0.896-2.782,2.568-2.782c0.643,0,1.157,0.121,1.59,0.308V466.547z"/>
			<path id="XMLID_302_" style="fill:#9EB7C7;" d="M286.297,469.878c-0.177-0.029-0.357-0.046-0.525-0.046
				c-0.896,0-1.51,0.548-1.51,1.613v3.908h-1.933v-7.172h1.873v0.784c0.451-0.673,1.14-0.977,2.021-0.977
				c0.414,0,0.848,0.128,1.095,0.337L286.297,469.878z"/>
			<path id="XMLID_299_" style="fill:#9EB7C7;" d="M293.965,471.757c0,0.222-0.016,0.488-0.037,0.651h-5.085
				c0.207,1.036,0.933,1.487,1.843,1.487c0.622,0,1.295-0.252,1.813-0.689l1.133,1.243c-0.814,0.748-1.851,1.089-3.057,1.089
				c-2.198,0-3.724-1.496-3.724-3.753c0-2.258,1.48-3.797,3.627-3.797C292.543,467.99,293.958,469.522,293.965,471.757z
				 M288.851,471.091h3.175c-0.178-0.918-0.732-1.437-1.561-1.437C289.554,469.655,289.021,470.203,288.851,471.091z"/>
			<path id="XMLID_296_" style="fill:#9EB7C7;" d="M301.619,471.757c0,0.222-0.016,0.488-0.037,0.651h-5.085
				c0.207,1.036,0.933,1.487,1.843,1.487c0.622,0,1.296-0.252,1.814-0.689l1.133,1.243c-0.815,0.748-1.851,1.089-3.058,1.089
				c-2.198,0-3.723-1.496-3.723-3.753c0-2.258,1.48-3.797,3.627-3.797C300.197,467.99,301.611,469.522,301.619,471.757z
				 M296.504,471.091h3.175c-0.178-0.918-0.733-1.437-1.561-1.437C297.208,469.655,296.674,470.203,296.504,471.091z"/>
			<path id="XMLID_293_" style="fill:#9EB7C7;" d="M309.964,471.764c0,2.154-1.495,3.775-3.472,3.775
				c-0.962,0-1.644-0.378-2.109-0.933v3.708h-1.925v-10.133h1.888v0.792c0.467-0.585,1.154-0.984,2.139-0.984
				C308.469,467.99,309.964,469.611,309.964,471.764z M304.287,471.764c0,1.133,0.748,1.977,1.844,1.977
				c1.14,0,1.85-0.881,1.85-1.977c0-1.095-0.71-1.976-1.85-1.976C305.035,469.789,304.287,470.632,304.287,471.764z"/>
			<path id="XMLID_290_" style="fill:#9EB7C7;" d="M313.068,465.836c0,0.696-0.541,1.229-1.236,1.229
				c-0.696,0-1.229-0.533-1.229-1.229c0-0.695,0.532-1.243,1.229-1.243C312.527,464.592,313.068,465.14,313.068,465.836z
				 M312.808,475.354h-1.932v-7.172h1.932V475.354z"/>
			<path id="XMLID_288_" style="fill:#9EB7C7;" d="M316.032,470.736l2.702-2.554h2.368l-3.478,3.375l3.501,3.797h-2.376
				l-2.717-2.901v2.901H314.1v-10.658h1.932V470.736z"/>
		</g>
		<g id="XMLID_259_">
			<path id="XMLID_284_" style="fill:#9EB7C7;" d="M184.412,475.29v-1.055c-0.527,0.718-1.391,1.23-2.387,1.23
				c-1.846,0-3.149-1.406-3.149-3.706c0-2.256,1.289-3.721,3.149-3.721c0.952,0,1.816,0.469,2.387,1.245v-3.765h1.099v9.771H184.412
				z M184.412,473.371v-3.208c-0.395-0.615-1.245-1.143-2.124-1.143c-1.42,0-2.27,1.172-2.27,2.739c0,1.567,0.85,2.725,2.27,2.725
				C183.167,474.484,184.017,473.986,184.412,473.371z"/>
			<path id="XMLID_281_" style="fill:#9EB7C7;" d="M186.932,471.745c0-2.051,1.465-3.706,3.486-3.706
				c2.139,0,3.398,1.67,3.398,3.794v0.278h-5.727c0.088,1.333,1.025,2.446,2.549,2.446c0.806,0,1.626-0.322,2.182-0.894l0.527,0.718
				c-0.703,0.703-1.655,1.084-2.812,1.084C188.44,475.465,186.932,473.957,186.932,471.745z M190.403,468.947
				c-1.509,0-2.256,1.274-2.314,2.358h4.644C192.718,470.25,192.015,468.947,190.403,468.947z"/>
			<path id="XMLID_279_" style="fill:#9EB7C7;" d="M194.607,474.352l0.571-0.791c0.469,0.542,1.362,1.011,2.329,1.011
				c1.084,0,1.67-0.513,1.67-1.216c0-1.714-4.38-0.659-4.38-3.281c0-1.099,0.952-2.036,2.636-2.036c1.202,0,2.051,0.454,2.623,1.025
				l-0.513,0.762c-0.424-0.513-1.201-0.894-2.109-0.894c-0.966,0-1.567,0.483-1.567,1.113c0,1.553,4.379,0.527,4.379,3.281
				c0,1.187-0.952,2.139-2.783,2.139C196.306,475.465,195.325,475.114,194.607,474.352z"/>
			<path id="XMLID_276_" style="fill:#9EB7C7;" d="M201.477,466.471c0-0.41,0.337-0.747,0.732-0.747c0.41,0,0.747,0.337,0.747,0.747
				c0,0.41-0.337,0.732-0.747,0.732C201.814,467.204,201.477,466.881,201.477,466.471z M201.667,475.29v-7.075h1.099v7.075H201.667z
				"/>
			<path id="XMLID_273_" style="fill:#9EB7C7;" d="M204.582,477.106l0.556-0.82c0.586,0.703,1.289,0.967,2.3,0.967
				c1.172,0,2.27-0.571,2.27-2.124v-1.011c-0.513,0.718-1.377,1.26-2.373,1.26c-1.846,0-3.149-1.377-3.149-3.662
				c0-2.271,1.289-3.677,3.149-3.677c0.952,0,1.802,0.469,2.373,1.245v-1.069h1.099v6.87c0,2.344-1.641,3.076-3.369,3.076
				C206.237,478.161,205.416,477.925,204.582,477.106z M209.708,473.253v-3.091c-0.381-0.615-1.23-1.143-2.109-1.143
				c-1.421,0-2.27,1.128-2.27,2.695c0,1.553,0.849,2.695,2.27,2.695C208.478,474.411,209.328,473.869,209.708,473.253z"/>
			<path id="XMLID_271_" style="fill:#9EB7C7;" d="M217.413,475.29v-4.629c0-1.245-0.63-1.641-1.582-1.641
				c-0.864,0-1.685,0.527-2.094,1.099v5.171h-1.099v-7.075h1.099v1.025c0.497-0.586,1.464-1.201,2.519-1.201
				c1.48,0,2.256,0.747,2.256,2.285v4.966H217.413z"/>
			<path id="XMLID_268_" style="fill:#9EB7C7;" d="M219.932,471.745c0-2.051,1.465-3.706,3.486-3.706
				c2.139,0,3.398,1.67,3.398,3.794v0.278h-5.727c0.088,1.333,1.025,2.446,2.548,2.446c0.806,0,1.626-0.322,2.183-0.894l0.527,0.718
				c-0.703,0.703-1.655,1.084-2.813,1.084C221.441,475.465,219.932,473.957,219.932,471.745z M223.404,468.947
				c-1.509,0-2.256,1.274-2.314,2.358h4.643C225.718,470.25,225.015,468.947,223.404,468.947z"/>
			<path id="XMLID_265_" style="fill:#9EB7C7;" d="M233.35,475.29v-1.055c-0.527,0.718-1.392,1.23-2.388,1.23
				c-1.845,0-3.149-1.406-3.149-3.706c0-2.256,1.289-3.721,3.149-3.721c0.952,0,1.817,0.469,2.388,1.245v-3.765h1.098v9.771H233.35z
				 M233.35,473.371v-3.208c-0.396-0.615-1.245-1.143-2.124-1.143c-1.421,0-2.27,1.172-2.27,2.739c0,1.567,0.85,2.725,2.27,2.725
				C232.105,474.484,232.954,473.986,233.35,473.371z"/>
			<path id="XMLID_262_" style="fill:#9EB7C7;" d="M239.692,475.29v-9.771h1.099v3.765c0.571-0.776,1.421-1.245,2.388-1.245
				c1.845,0,3.149,1.465,3.149,3.721c0,2.3-1.304,3.706-3.149,3.706c-0.996,0-1.86-0.513-2.388-1.23v1.055H239.692z M242.9,474.484
				c1.436,0,2.285-1.157,2.285-2.725c0-1.567-0.85-2.739-2.285-2.739c-0.864,0-1.729,0.527-2.109,1.143v3.208
				C241.171,473.986,242.036,474.484,242.9,474.484z"/>
			<path id="XMLID_260_" style="fill:#9EB7C7;" d="M247.528,477.062c0.161,0.073,0.425,0.117,0.6,0.117
				c0.483,0,0.806-0.161,1.055-0.747l0.469-1.069l-2.959-7.148h1.187l2.358,5.801l2.344-5.801h1.2l-3.544,8.511
				c-0.425,1.024-1.143,1.421-2.08,1.436c-0.234,0-0.6-0.044-0.806-0.104L247.528,477.062z"/>
		</g>
	</g>
</g>
</svg>
